<svg width="1200" height="630" viewBox="0 0 1200 630" fill="none" xmlns="http://www.w3.org/2000/svg">
  <rect width="1200" height="630" fill="#032F29" />
  <rect width="1200" height="630" fill="url(#bgGlow)" />
  <g opacity="0.35">
    <path d="M48 96H1152" stroke="#9CFF78" stroke-opacity="0.16" />
    <path d="M48 168H1152" stroke="#9CFF78" stroke-opacity="0.16" />
    <path d="M48 240H1152" stroke="#9CFF78" stroke-opacity="0.16" />
    <path d="M48 312H1152" stroke="#9CFF78" stroke-opacity="0.16" />
    <path d="M48 384H1152" stroke="#9CFF78" stroke-opacity="0.16" />
    <path d="M48 456H1152" stroke="#9CFF78" stroke-opacity="0.16" />
    <path d="M48 528H1152" stroke="#9CFF78" stroke-opacity="0.16" />
    <path d="M120 48V582" stroke="#9CFF78" stroke-opacity="0.16" />
    <path d="M264 48V582" stroke="#9CFF78" stroke-opacity="0.16" />
    <path d="M408 48V582" stroke="#9CFF78" stroke-opacity="0.16" />
    <path d="M552 48V582" stroke="#9CFF78" stroke-opacity="0.16" />
    <path d="M696 48V582" stroke="#9CFF78" stroke-opacity="0.16" />
    <path d="M840 48V582" stroke="#9CFF78" stroke-opacity="0.16" />
    <path d="M984 48V582" stroke="#9CFF78" stroke-opacity="0.16" />
  </g>
  <rect x="92" y="86" width="526" height="330" rx="8" fill="#074D43" stroke="#9CFF78" stroke-opacity="0.24" />
  <rect x="92" y="86" width="526" height="58" rx="8" fill="#0B6053" />
  <circle cx="126" cy="115" r="8" fill="#9CFF78" fill-opacity="0.9" />
  <circle cx="156" cy="115" r="8" fill="#E9B949" fill-opacity="0.9" />
  <circle cx="186" cy="115" r="8" fill="#F05F4F" fill-opacity="0.9" />
  <rect x="130" y="184" width="258" height="18" rx="9" fill="#F7FFF2" fill-opacity="0.78" />
  <rect x="130" y="218" width="212" height="44" rx="10" fill="#9CFF78" fill-opacity="0.92" />
  <rect x="130" y="286" width="334" height="16" rx="8" fill="#F7FFF2" fill-opacity="0.48" />
  <rect x="130" y="318" width="286" height="16" rx="8" fill="#F7FFF2" fill-opacity="0.34" />
  <rect x="442" y="184" width="126" height="126" rx="18" fill="url(#scoreCard)" />
  <circle cx="505" cy="247" r="38" fill="#032F29" fill-opacity="0.72" />
  <path d="M505 209C526.025 209 543 225.975 543 247C543 268.025 526.025 285 505 285C483.975 285 467 268.025 467 247C467 225.975 483.975 209 505 209Z" stroke="#9CFF78" stroke-width="14" />
  <rect x="92" y="454" width="364" height="96" rx="8" fill="#0B6053" stroke="#9CFF78" stroke-opacity="0.24" />
  <rect x="492" y="454" width="248" height="96" rx="8" fill="#08463D" stroke="#9CFF78" stroke-opacity="0.24" />
  <rect x="776" y="132" width="336" height="366" rx="14" fill="#F6FFF2" fill-opacity="0.96" />
  <rect x="816" y="174" width="256" height="20" rx="10" fill="#0B6053" fill-opacity="0.16" />
  <rect x="816" y="228" width="296" height="18" rx="9" fill="#0B6053" fill-opacity="0.12" />
  <rect x="816" y="264" width="268" height="18" rx="9" fill="#0B6053" fill-opacity="0.1" />
  <rect x="816" y="320" width="132" height="132" rx="18" fill="url(#signalCard)" />
  <rect x="972" y="320" width="140" height="18" rx="9" fill="#0B6053" fill-opacity="0.16" />
  <rect x="972" y="354" width="124" height="18" rx="9" fill="#0B6053" fill-opacity="0.12" />
  <rect x="972" y="388" width="112" height="18" rx="9" fill="#0B6053" fill-opacity="0.1" />
  <rect x="972" y="422" width="96" height="18" rx="9" fill="#0B6053" fill-opacity="0.08" />
  <circle cx="884" cy="386" r="34" fill="#032F29" fill-opacity="0.78" />
  <path d="M884 352C902.778 352 918 367.222 918 386C918 404.778 902.778 420 884 420C865.222 420 850 404.778 850 386C850 367.222 865.222 352 884 352Z" stroke="#9CFF78" stroke-width="12" />
  <circle cx="1020" cy="528" r="148" fill="url(#cornerGlow)" />
  <defs>
    <radialGradient id="bgGlow" cx="0" cy="0" r="1" gradientUnits="userSpaceOnUse" gradientTransform="translate(1020 92) rotate(125.013) scale(688.094 1085.68)">
      <stop stop-color="#9CFF78" stop-opacity="0.22" />
      <stop offset="0.28" stop-color="#9CFF78" stop-opacity="0.08" />
      <stop offset="1" stop-color="#032F29" stop-opacity="0" />
    </radialGradient>
    <linearGradient id="scoreCard" x1="505" y1="184" x2="505" y2="310" gradientUnits="userSpaceOnUse">
      <stop stop-color="#CFFFAB" />
      <stop offset="1" stop-color="#9CFF78" />
    </linearGradient>
    <linearGradient id="signalCard" x1="882" y1="320" x2="882" y2="452" gradientUnits="userSpaceOnUse">
      <stop stop-color="#0B6053" />
      <stop offset="1" stop-color="#08463D" />
    </linearGradient>
    <radialGradient id="cornerGlow" cx="0" cy="0" r="1" gradientUnits="userSpaceOnUse" gradientTransform="translate(1020 528) rotate(90) scale(148)">
      <stop stop-color="#9CFF78" stop-opacity="0.62" />
      <stop offset="1" stop-color="#9CFF78" stop-opacity="0" />
    </radialGradient>
  </defs>
</svg>
